<svg width="91" height="56" viewBox="0 0 91 56" fill="none" xmlns="http://www.w3.org/2000/svg">
<path d="M2.34375 21.2549V9.7998C2.34375 9.2627 2.68555 8.99414 3.36914 8.99414H5.5957C6.2793 8.99414 6.62109 9.2627 6.62109 9.7998V21.1084C6.62109 23.7451 7.00684 25.3955 7.77832 26.0596C8.55957 26.7139 9.43848 27.041 10.415 27.041C11.3916 27.041 12.2656 26.7139 13.0371 26.0596C13.8184 25.3955 14.209 23.7451 14.209 21.1084V9.7998C14.209 9.2627 14.5508 8.99414 15.2344 8.99414H17.4609C18.1445 8.99414 18.4863 9.2627 18.4863 9.7998V21.2549C18.4863 24.6729 17.7637 27.0703 16.3184 28.4473C14.873 29.8145 12.9053 30.498 10.415 30.498C7.9248 30.498 5.95703 29.8145 4.51172 28.4473C3.06641 27.0703 2.34375 24.6729 2.34375 21.2549ZM23.7012 30C23.1152 30 22.8223 29.707 22.8223 29.1211V9.25781C22.8223 8.67188 23.1152 8.37891 23.7012 8.37891H26.0449C26.6309 8.37891 26.9238 8.67188 26.9238 9.25781V15.1758C26.9238 15.5664 26.9043 15.957 26.8652 16.3477H26.9238C27.4316 15.5078 27.998 14.9609 28.623 14.707C29.248 14.4531 30 14.3262 30.8789 14.3262C33.1738 14.3262 34.7852 15.1221 35.7129 16.7139C36.6504 18.2959 37.1191 20.1611 37.1191 22.3096C37.1191 24.458 36.6504 26.3281 35.7129 27.9199C34.7852 29.502 33.1738 30.293 30.8789 30.293C30 30.293 29.248 30.166 28.623 29.9121C27.998 29.6582 27.4316 29.1113 26.9238 28.2715H26.8652L26.8066 29.1211C26.7676 29.707 26.5039 30 26.0156 30H23.7012ZM26.9238 22.9688C26.9238 24.2871 27.1826 25.3613 27.7002 26.1914C28.2275 27.0117 28.8574 27.4219 29.5898 27.4219C30.9082 27.4219 31.7676 26.9629 32.168 26.0449C32.5781 25.1172 32.7832 23.8721 32.7832 22.3096C32.7832 20.7471 32.5781 19.5068 32.168 18.5889C31.7676 17.6611 30.9082 17.1973 29.5898 17.1973C28.8574 17.1973 28.2275 17.6123 27.7002 18.4424C27.1826 19.2627 26.9238 20.332 26.9238 21.6504V22.9688ZM40.2539 23.6133V15.498C40.2539 14.9121 40.5469 14.6191 41.1328 14.6191H43.4766C44.0625 14.6191 44.3555 14.9121 44.3555 15.498V22.5586C44.3555 24.6875 44.502 26.0303 44.7949 26.5869C45.0879 27.1436 45.7031 27.4219 46.6406 27.4219C47.6367 27.4219 48.3936 27.0264 48.9111 26.2354C49.4287 25.4346 49.6875 23.7793 49.6875 21.2695V15.498C49.6875 14.9121 49.9805 14.6191 50.5664 14.6191H52.9102C53.4961 14.6191 53.7891 14.9121 53.7891 15.498V29.1211C53.7891 29.707 53.4961 30 52.9102 30H50.5957C50.0098 30 49.7168 29.707 49.7168 29.1211V28.2715H49.6582C49.209 29.043 48.6377 29.5752 47.9443 29.8682C47.251 30.1514 46.4307 30.293 45.4834 30.293C43.9893 30.293 42.7441 29.8145 41.748 28.8574C40.752 27.9004 40.2539 26.1523 40.2539 23.6133ZM56.8213 15.7617C56.5576 15 56.7188 14.6191 57.3047 14.6191H59.9268C60.376 14.6191 60.6689 14.8682 60.8057 15.3662L63.0176 23.5547C63.125 23.9355 63.2178 24.4287 63.2959 25.0342C63.3838 25.6299 63.4277 26.0107 63.4277 26.1768H63.5156C63.6328 25.6592 63.7158 25.249 63.7646 24.9463C63.8232 24.6338 63.9746 24.0332 64.2188 23.1445L66.3135 15.3662C66.4502 14.8682 66.7432 14.6191 67.1924 14.6191H69.8145C70.3906 14.6191 70.5518 15 70.2979 15.7617L65.3613 30.6152C64.7852 32.3535 64.0771 33.7109 63.2373 34.6875C62.3975 35.6641 61.2305 36.1523 59.7363 36.1523C58.916 36.1523 58.1836 36.084 57.5391 35.9473C57.168 35.8691 57.0264 35.6152 57.1143 35.1855L57.4365 33.5742C57.5244 33.1543 57.7734 33.0078 58.1836 33.1348C58.4863 33.2324 58.7695 33.2812 59.0332 33.2812C59.8242 33.2812 60.4248 32.9053 60.835 32.1533C61.2549 31.4014 61.5332 30.7568 61.6699 30.2197L61.7139 30L56.8213 15.7617Z" fill="white"/>
<path d="M74.0468 29.9688C74.4979 29.4129 75.0982 29.1055 75.721 29.1116C76.3439 29.1177 76.9405 29.4368 77.385 30.0015C77.8296 30.5662 78.0873 31.3324 78.1038 32.1384C78.1202 32.9443 77.8942 33.727 77.4733 34.3214L64.6961 55.0064C64.4764 55.3127 64.2113 55.5585 63.9165 55.7291C63.6217 55.8998 63.3034 55.9917 62.9805 55.9995C62.6577 56.0072 62.3369 55.9306 62.0375 55.7742C61.738 55.6178 61.466 55.3848 61.2377 55.0893L52.7644 44.1208C52.5284 43.8362 52.3392 43.493 52.2079 43.1116C52.0766 42.7302 52.0061 42.3186 52.0004 41.9011C51.9947 41.4837 52.054 41.069 52.1748 40.6819C52.2956 40.2948 52.4754 39.9431 52.7034 39.6479C52.9315 39.3527 53.2032 39.1199 53.5022 38.9636C53.8013 38.8072 54.1216 38.7304 54.4441 38.7378C54.7666 38.7452 55.0846 38.8365 55.3792 39.0065C55.6738 39.1764 55.939 39.4214 56.1588 39.7268L62.8644 48.4029L73.9828 30.06C74.0027 30.028 74.0241 29.9976 74.0468 29.9688V29.9688ZM71.1007 51.2756L74.0468 55.0893C74.2751 55.3842 74.5469 55.6166 74.8461 55.7726C75.1452 55.9286 75.4656 56.0051 75.7881 55.9973C76.1105 55.9896 76.4285 55.8978 76.723 55.7276C77.0175 55.5573 77.2824 55.312 77.5021 55.0064L90.2856 34.3214C90.5153 34.0279 90.6969 33.6775 90.8196 33.2912C90.9423 32.9048 91.0036 32.4904 90.9998 32.0727C90.9961 31.655 90.9273 31.2426 90.7977 30.86C90.6681 30.4775 90.4802 30.1327 90.2453 29.8462C90.0105 29.5598 89.7334 29.3375 89.4307 29.1927C89.128 29.0479 88.8059 28.9836 88.4836 29.0035C88.1612 29.0235 87.8453 29.1273 87.5547 29.3089C87.264 29.4904 87.0046 29.7458 86.7919 30.06L75.6704 48.4029L74.1173 46.3883L71.0975 51.2756H71.1007Z" fill="#E9D5DA"/>
</svg>
